{"title":"Hell.Drivers.1957.DVDRip.x264.Iou1","uid":8501500,"size":731005926,"categoryP":"video","categoryS":"movies","magnet":"?xt=urn:btih:8db5dfb971c58adfce9ba41f5f76b91f77cdbc4b&amp;dn=Hell.Drivers.1957.DVDRip.x264.Iou1&amp;tr=udp%3A%2F%2Ftracker.openbittorrent.com%3A80&amp;tr=udp%3A%2F%2Fopen.demonii.com%3A1337&amp;tr=udp%3A%2F%2Ftracker.coppersurfer.tk%3A6969&amp;tr=udp%3A%2F%2Fexodus.desync.com%3A6969","seeders":1,"leechers":0,"uploader":"jaybee211","files":-1,"time":1369268560,"description":"Note. Re-Encode from an Xvid flie coverted to DVD, Quality is reasonabley good\n\nFormat                                   : MPEG-4\nFormat profile                           : Base Media / Version 2\nCodec ID                                 : mp42\nFile size                                : 697 MiB\nDuration                                 : 1h 43mn\nOverall bit rate mode                    : Variable\nOverall bit rate                         : 942 Kbps\n\nVideo\nID                                       : 1\nFormat                                   : AVC\nFormat/Info                              : Advanced Video Codec\nFormat profile                           : &lt;a class=&quot;__cf_email__&quot; href=&quot;/cdn-cgi/l/email-protection&quot; data-cfemail=&quot;dd95b4bab59d91eef3ed&quot;&gt;[email&amp;#160;protected]&lt;/a&gt;&lt;script cf-hash='f9e31' type=&quot;text/javascript&quot;&gt;\n/* &lt;![CDATA[ */!function(){try{var t=&quot;currentScript&quot;in document?document.currentScript:function(){for(var t=document.getElementsByTagName(&quot;script&quot;),e=t.length;e--;)if(t[e].getAttribute(&quot;cf-hash&quot;))return t[e]}();if(t&amp;&amp;t.previousSibling){var e,r,n,i,c=t.previousSibling,a=c.getAttribute(&quot;data-cfemail&quot;);if(a){for(e=&quot;&quot;,r=parseInt(a.substr(0,2),16),n=2;a.length-n;n+=2)i=parseInt(a.substr(n,2),16)^r,e+=String.fromCharCode(i);e=document.createTextNode(e),c.parentNode.replaceChild(e,c)}}}catch(u){}}();/* ]]&gt; */&lt;/script&gt;\nFormat settings, CABAC                   : Yes\nFormat settings, ReFrames                : 4 frames\nCodec ID                                 : avc1\nCodec ID/Info                            : Advanced Video Coding\nDuration                                 : 1h 43mn\nBit rate mode                            : Variable\nBit rate                                 : 844 Kbps\nMaximum bit rate                         : 3 536 Kbps\nWidth                                    : 720 pixels\nHeight                                   : 388 pixels\nDisplay aspect ratio                     : 1.85:1\nFrame rate mode                          : Constant\nFrame rate                               : 25.000 fps\nStandard                                 : PAL\nColor space                              : YUV\nChroma subsampling                       : 4:2:0\nBit depth                                : 8 bits\nScan type                                : Progressive\nBits/(Pixel*Frame)                       : 0.121\nStream size                              : 624 MiB (90%)\nLanguage                                 : English\n\nAudio\nID                                       : 2\nFormat                                   : AAC\nFormat/Info                              : Advanced Audio Codec\nFormat profile                           : LC\nCodec ID                                 : 40\nDuration                                 : 1h 43mn\nBit rate mode                            : Variable\nBit rate                                 : 94.0 Kbps\nMaximum bit rate                         : 103 Kbps\nChannel(s)                               : 2 channels\nChannel positions                        : Front: L R\nSampling rate                            : 48.0 KHz\nCompression mode                         : Lossy\nStream size                              : 69.5 MiB (10%)\nTitle                                    : MP3 2-ch 48KHz\nLanguage                                 : English\nSubtitles                                : None\n\nIMDB. &lt;a href=&quot; http://www.imdb.com/title/tt0051713/&quot; rel=&quot;nofollow&quot; target=&quot;_NEW&quot;&gt; http://www.imdb.com/title/tt0051713/&lt;/a&gt; \n\nStoryline.\n\nJoe 'Tom' Yateley is an ex-convict. Trying to leave his past behind, he decides to starts working for the Hawlett Trucking company, which transports gravel. It's an aggressive company, where speed is everything. Doing too less runs in a day? You're out. Red is the most experienced trucker, he can do 18 runs in a day. Tom soon makes friends with Lucy, the secretary, and Gino, a driver. But the record of Red intrigues him and he wants to break it. Gino advises against it, but he helps Tom when he wants to go through with it. Soon trouble begins when Red and the other drivers form an united front against Tom. Just when Tom has enough and decides to pack his bags, Lucy tells him Gino had a terrible accident. She also tells about the corruption of Hawlett Trucking.\n\nSreens. &lt;a href=&quot; http://bayimg.com/OamMcAaen&quot; rel=&quot;nofollow&quot; target=&quot;_NEW&quot;&gt; http://bayimg.com/OamMcAaen&lt;/a&gt;\n\n        &lt;a href=&quot; http://bayimg.com/oamMEaAEn&quot; rel=&quot;nofollow&quot; target=&quot;_NEW&quot;&gt; http://bayimg.com/oamMEaAEn&lt;/a&gt;\n\nEnjoy.","torrent":{"xt":"urn:btih:8db5dfb971c58adfce9ba41f5f76b91f77cdbc4b","amp;dn":"Hell.Drivers.1957.DVDRip.x264.Iou1","amp;tr":["udp%3A%2F%2Ftracker.openbittorrent.com%3A80","udp%3A%2F%2Fopen.demonii.com%3A1337","udp%3A%2F%2Ftracker.coppersurfer.tk%3A6969","udp%3A%2F%2Fexodus.desync.com%3A6969"],"infoHash":"8db5dfb971c58adfce9ba41f5f76b91f77cdbc4b","infoHashBuffer":{"type":"Buffer","data":[141,181,223,185,113,197,138,223,206,155,164,31,95,118,185,31,119,205,188,75]},"announce":[],"urlList":[]}}